<?xml version="1.0" encoding="UTF-8" standalone="no"?>
<svg
   xmlns:dc="http://purl.org/dc/elements/1.1/"
   xmlns:cc="http://creativecommons.org/ns#"
   xmlns:rdf="http://www.w3.org/1999/02/22-rdf-syntax-ns#"
   xmlns:svg="http://www.w3.org/2000/svg"
   xmlns="http://www.w3.org/2000/svg"
   xmlns:sodipodi="http://sodipodi.sourceforge.net/DTD/sodipodi-0.dtd"
   xmlns:inkscape="http://www.inkscape.org/namespaces/inkscape"
   width="400"
   height="400"
   viewBox="0 0 105.83333 105.83333"
   version="1.1"
   id="svg8"
   inkscape:version="1.0.2 (e86c870879, 2021-01-15)"
   sodipodi:docname="double_A_logo.svg">
  <defs
     id="defs2" />
  <sodipodi:namedview
     id="base"
     pagecolor="#ffffff"
     bordercolor="#666666"
     borderopacity="1.0"
     inkscape:pageopacity="0.0"
     inkscape:pageshadow="2"
     inkscape:zoom="1.4"
     inkscape:cx="265.44531"
     inkscape:cy="261.46923"
     inkscape:document-units="mm"
     inkscape:current-layer="layer1"
     inkscape:document-rotation="0"
     showgrid="false"
     showguides="true"
     inkscape:guide-bbox="true"
     units="px"
     inkscape:window-width="1920"
     inkscape:window-height="1048"
     inkscape:window-x="0"
     inkscape:window-y="0"
     inkscape:window-maximized="1" />
  <metadata
     id="metadata5">
    <rdf:RDF>
      <cc:Work
         rdf:about="">
        <dc:format>image/svg+xml</dc:format>
        <dc:type
           rdf:resource="http://purl.org/dc/dcmitype/StillImage" />
        <dc:title></dc:title>
      </cc:Work>
    </rdf:RDF>
  </metadata>
  <g
     inkscape:label="Layer 1"
     inkscape:groupmode="layer"
     id="layer1">
    <g
       id="g969"
       transform="matrix(0.66440045,0,0,0.66440045,-16.668964,-50.216196)">
      <path
         id="path867"
         style="fill:#0000ff;fill-opacity:1;stroke-width:0.195272"
         d="m 105.58505,77.974162 a 77.058261,77.058261 0 0 0 -77.032677,77.058238 77.058261,77.058261 0 0 0 77.058237,77.05823 77.058261,77.058261 0 0 0 77.05823,-77.05823 77.058261,77.058261 0 0 0 -77.05823,-77.058238 77.058261,77.058261 0 0 0 -0.0256,0 z m -0.10221,7.162913 a 69.895346,69.895346 0 0 1 0.12777,0 69.895346,69.895346 0 0 1 69.89532,69.895325 69.895346,69.895346 0 0 1 -69.89532,69.89532 A 69.895346,69.895346 0 0 1 35.715285,155.0324 69.895346,69.895346 0 0 1 105.48284,85.137075 Z" />
      <g
         id="g900"
         transform="translate(-1.889881,-1.889881)">
        <text
           xml:space="preserve"
           style="font-style:normal;font-weight:normal;font-size:92.3912px;line-height:1.25;font-family:sans-serif;fill:#000000;fill-opacity:1;stroke:none;stroke-width:2.30979"
           x="-99.819214"
           y="-184.33614"
           id="text16"
           transform="matrix(1.1764069,0,-0.84347263,-0.85004601,0,0)"><tspan
             sodipodi:role="line"
             id="tspan14"
             x="-99.819214"
             y="-184.33614"
             style="font-style:normal;font-variant:normal;font-weight:normal;font-stretch:normal;font-family:Rasheeq;-inkscape-font-specification:Rasheeq;fill:#000000;stroke-width:2.30979">A</tspan></text>
        <text
           xml:space="preserve"
           style="font-style:normal;font-weight:normal;font-size:92.3912px;line-height:1.25;font-family:sans-serif;fill:#0000ff;fill-opacity:1;stroke:none;stroke-width:2.30979"
           x="164.2072"
           y="183.86993"
           id="text865"
           transform="matrix(1.1764069,0,-0.84347264,0.85004601,0,0)"><tspan
             sodipodi:role="line"
             id="tspan863"
             x="164.2072"
             y="183.86993"
             style="font-style:normal;font-variant:normal;font-weight:normal;font-stretch:normal;font-family:Rasheeq;-inkscape-font-specification:Rasheeq;fill:#0000ff;fill-opacity:1;stroke-width:2.30979">A</tspan></text>
      </g>
      <rect
         style="fill:#000000;fill-opacity:1;stroke-width:0.264583"
         id="rect902"
         width="30.661173"
         height="3.3442035"
         x="131.96568"
         y="176.15033" />
      <rect
         style="fill:#0000ff;fill-opacity:1;stroke-width:0.264583"
         id="rect904-7"
         width="30.661173"
         height="3.3442035"
         x="123.31133"
         y="153.07161" />
      <rect
         style="fill:#000000;fill-opacity:1;stroke-width:0.264583"
         id="rect926"
         width="30.661173"
         height="3.3442035"
         x="131.96695"
         y="129.64975" />
    </g>
  </g>
</svg>
